<svg width="96" height="96" viewBox="0 0 96 96" fill="none" xmlns="http://www.w3.org/2000/svg">
<path d="M92 43.128V56.1855H56.96L48 60.6172L39.04 56.1855H4V43.128L21.84 16.6172H36V24.5309H26.16L12 45.5021V48.2719H40.96L48 51.7539L55.04 48.2719H84V45.5021L69.84 24.5309H60V16.6172H74.16L92 43.128Z" fill="url(#paint0_linear_166_1393)"/>
<path d="M84 48V64L81.5195 73.96C81.0831 75.6869 80.0834 77.2194 78.6777 78.3135C77.2721 79.4075 75.541 80.0009 73.7598 80C56.6017 80 57.0498 81.153 51.5918 75.6172H44.4883C41.7567 78.4247 39.8887 80 36.6797 80H22.2402C20.459 80.0009 18.7279 79.4075 17.3223 78.3135C15.9166 77.2194 14.9169 75.6869 14.4805 73.96C12.5371 66.0813 12.0008 64.0032 12 64C11.9341 60.243 12 51.4157 12 48L40 44H56L84 48Z" fill="url(#paint1_linear_166_1393)"/>
<path d="M4 48H11.9849V64H4V48Z" fill="#EEF3FF"/>
<path d="M84 48H91.9849V64H84V48Z" fill="#EEF3FF"/>
<defs>
<linearGradient id="paint0_linear_166_1393" x1="48" y1="16.6172" x2="48" y2="60.6172" gradientUnits="userSpaceOnUse">
<stop stop-color="#CDD4E4"/>
<stop offset="1" stop-color="#71757E"/>
</linearGradient>
<linearGradient id="paint1_linear_166_1393" x1="47.9853" y1="44" x2="47.9853" y2="78.1172" gradientUnits="userSpaceOnUse">
<stop stop-color="#A3BDFF"/>
<stop offset="1" stop-color="#627199"/>
</linearGradient>
</defs>
</svg>
