<svg width="34" height="32" viewBox="0 0 34 32" fill="none" xmlns="http://www.w3.org/2000/svg">
<path d="M16.5375 18.9206C15.0938 18.9206 13.8578 18.4076 12.8297 17.3817C11.8016 16.3557 11.2876 15.1187 11.2876 13.6707C11.2876 12.2226 11.8005 10.9856 12.8265 9.95965C13.8524 8.9337 15.0894 8.42073 16.5375 8.42073C17.9856 8.42073 19.2226 8.9337 20.2485 9.95965C21.2745 10.9856 21.7874 12.2226 21.7874 13.6707C21.7874 15.1187 21.2734 16.3557 20.2453 17.3817C19.2172 18.4076 17.9812 18.9206 16.5375 18.9206ZM5.28755 30.3437V27.0091C5.28755 26.2514 5.48082 25.5654 5.86736 24.9509C6.25389 24.3365 6.79331 23.8611 7.48562 23.5245C8.73177 22.9034 10.126 22.3846 11.6683 21.9683C13.2106 21.5519 14.8337 21.3438 16.5375 21.3438C18.2413 21.3438 19.8644 21.5519 21.4067 21.9683C22.949 22.3846 24.3432 22.9034 25.5894 23.5245C26.2817 23.8611 26.8211 24.3365 27.2076 24.9509C27.5942 25.5654 27.7874 26.2514 27.7874 27.0091V30.3437H5.28755ZM7.5375 28.0937H25.5375V27.0091C25.5375 26.6668 25.4447 26.3735 25.2591 26.1293C25.0735 25.8851 24.8394 25.686 24.5567 25.5322C23.6375 25.0629 22.4716 24.6225 21.0591 24.211C19.6466 23.7995 18.1394 23.5937 16.5375 23.5937C14.9356 23.5937 13.4284 23.7995 12.0159 24.211C10.6034 24.6225 9.43752 25.0629 8.51829 25.5322C8.23559 25.686 8.00145 25.8851 7.81587 26.1293C7.63029 26.3735 7.5375 26.6668 7.5375 27.0091V28.0937ZM16.5375 16.6707C17.3625 16.6707 18.0688 16.3769 18.6562 15.7894C19.2437 15.2019 19.5375 14.4957 19.5375 13.6707C19.5375 12.8457 19.2437 12.1394 18.6562 11.5519C18.0688 10.9644 17.3625 10.6707 16.5375 10.6707C15.7125 10.6707 15.0062 10.9644 14.4187 11.5519C13.8313 12.1394 13.5375 12.8457 13.5375 13.6707C13.5375 14.4957 13.8313 15.2019 14.4187 15.7894C15.0062 16.3769 15.7125 16.6707 16.5375 16.6707ZM0 8.14667V5.89673C0.59809 5.89673 1.14666 5.78422 1.64571 5.55922C2.14476 5.33421 2.58948 5.02652 2.97987 4.63612C3.37027 4.24573 3.67171 3.7986 3.88422 3.29475C4.09672 2.79089 4.20298 2.24472 4.20298 1.65625H6.46157C6.46157 2.55099 6.2933 3.39151 5.95676 4.1778C5.62022 4.96409 5.15772 5.65146 4.56925 6.23993C3.98079 6.82839 3.29495 7.2933 2.51172 7.63465C1.7285 7.976 0.891256 8.14667 0 8.14667ZM0 13.6938V11.4438C1.37116 11.4438 2.64376 11.1871 3.81781 10.6736C4.99185 10.1601 6.01734 9.45726 6.89427 8.56494C7.7712 7.67263 8.46639 6.63692 8.97986 5.45783C9.49332 4.27873 9.75006 3.01154 9.75006 1.65625H12.0375C12.0375 3.30625 11.725 4.8625 11.1 6.325C10.475 7.7875 9.6125 9.06875 8.5125 10.1687C7.4125 11.2688 6.1375 12.1313 4.6875 12.7563C3.2375 13.3813 1.675 13.6938 0 13.6938ZM33.0375 13.6938C31.3895 13.6938 29.8351 13.3813 28.3743 12.7563C26.9136 12.1313 25.6339 11.2688 24.5352 10.1687C23.4365 9.06875 22.5751 7.7875 21.9508 6.325C21.3265 4.8625 21.0144 3.30625 21.0144 1.65625H23.2644C23.2644 3.01203 23.5215 4.27856 24.0357 5.45585C24.5499 6.63315 25.2536 7.66835 26.1467 8.56147C27.0398 9.45459 28.075 10.1583 29.2523 10.6725C30.4296 11.1867 31.6913 11.4438 33.0375 11.4438V13.6938ZM33.0375 8.14667C32.1428 8.14667 31.3022 7.976 30.5159 7.63465C29.7297 7.2933 29.0423 6.82839 28.4538 6.23993C27.8654 5.65146 27.4029 4.96409 27.0663 4.1778C26.7298 3.39151 26.5615 2.55099 26.5615 1.65625H28.8114C28.8114 2.24472 28.9215 2.79089 29.1417 3.29475C29.3619 3.7986 29.6672 4.24573 30.0576 4.63612C30.448 5.02652 30.8951 5.33421 31.399 5.55922C31.9029 5.78422 32.449 5.89673 33.0375 5.89673V8.14667Z" fill="#A3BDFF"/>
</svg>
