<svg width="1920" height="1006" viewBox="0 0 1920 1006" fill="none" xmlns="http://www.w3.org/2000/svg">
<path d="M559.351 49.3604C661.418 -18.0764 809.075 -15.1693 908.123 56.2196C975.932 105.096 1018.29 178.817 1076.33 237.98C1172.14 335.624 1313.42 391.387 1453.8 386.951C1509.91 385.18 1565.38 374.328 1621.5 372.589C1677.61 370.85 1736.76 379.375 1781.4 411.745C1820.83 440.345 1844.86 484.95 1855.8 530.947C1866.73 576.944 1865.71 624.698 1862.91 671.781C1861.44 696.676 1889 732.304 1867.13 746.059C1790.03 794.561 1894.09 1000.77 1920 1004.67" stroke="#EAE4D6" stroke-width="1.33333" stroke-miterlimit="10"/>
<path d="M545.008 54.709C647.075 -12.7278 794.732 -9.8208 893.78 61.5681C961.59 110.445 1003.94 184.166 1061.99 243.329C1157.8 340.972 1299.08 396.731 1439.45 392.299C1495.57 390.529 1551.04 379.676 1607.16 377.938C1663.27 376.199 1722.41 384.724 1767.05 417.094C1806.49 445.694 1830.52 490.299 1841.45 536.296C1852.38 582.293 1851.36 630.046 1848.57 677.129C1847.1 702.024 1874.03 737.57 1852.79 751.407C1778.31 799.909 1879.75 1000.77 1905.66 1004.67" stroke="#EAE4D6" stroke-width="1.33333" stroke-miterlimit="10"/>
<path d="M530.666 60.0576C632.733 -7.37924 780.391 -4.47217 879.438 66.9168C947.253 115.793 989.603 189.514 1047.65 248.677C1143.46 346.321 1284.74 402.079 1425.11 397.648C1481.23 395.877 1536.7 385.025 1592.81 383.286C1648.93 381.547 1708.07 390.072 1752.71 422.442C1792.15 451.042 1816.18 495.647 1827.11 541.644C1838.04 587.641 1837.02 635.395 1834.23 682.478C1832.76 707.373 1859.07 742.837 1838.45 756.756C1766.61 805.24 1865.41 1000.77 1891.32 1004.67" stroke="#EAE4D6" stroke-width="1.33333" stroke-miterlimit="10"/>
<path d="M516.323 65.4063C618.39 -2.03052 766.048 0.871894 865.096 72.2654C932.91 121.142 975.26 194.863 1033.31 254.026C1129.11 351.669 1270.39 407.428 1410.77 402.997C1466.89 401.226 1522.36 390.374 1578.47 388.635C1634.59 386.896 1693.73 395.421 1738.37 427.791C1777.8 456.391 1801.83 500.996 1812.77 546.993C1823.7 592.99 1822.68 640.744 1819.89 687.827C1818.41 712.717 1844.12 748.089 1824.11 762.104C1754.9 810.547 1851.07 1000.77 1876.97 1004.67" stroke="#EAE4D6" stroke-width="1.33333" stroke-miterlimit="10"/>
<path d="M501.98 70.7547C604.048 3.31786 751.705 6.22036 850.753 77.6139C918.567 126.49 960.918 200.211 1018.96 259.37C1114.77 357.018 1256.05 412.776 1396.43 408.345C1452.54 406.574 1508.02 395.722 1564.13 393.983C1620.24 392.245 1679.39 400.769 1724.03 433.139C1763.46 461.74 1787.49 506.345 1798.43 552.341C1809.35 598.338 1808.34 646.092 1805.54 693.175C1804.07 718.065 1829.18 753.338 1809.76 767.453C1743.21 815.827 1836.72 1000.77 1862.63 1004.67" stroke="#EAE4D6" stroke-width="1.33333" stroke-miterlimit="10"/>
<path d="M487.639 76.1033C589.706 8.66649 737.363 11.569 836.411 82.9625C904.225 131.839 946.576 205.56 1004.62 264.718C1100.43 362.366 1241.71 418.125 1382.08 413.694C1438.2 411.923 1493.67 401.066 1549.79 399.332C1605.9 397.593 1665.04 406.118 1709.68 438.488C1749.12 467.084 1773.15 511.693 1784.08 557.69C1795.01 603.687 1794 651.441 1791.2 698.524C1789.73 723.414 1814.25 758.581 1795.42 772.801C1731.51 821.08 1822.38 1000.77 1848.29 1004.67" stroke="#EAE4D6" stroke-width="1.33333" stroke-miterlimit="10"/>
<path d="M473.296 81.452C575.362 14.0152 723.02 16.9176 822.068 88.3111C889.882 137.188 932.232 210.909 990.279 270.067C1086.09 367.715 1227.36 423.474 1367.74 419.042C1423.86 417.272 1479.33 406.415 1535.44 404.68C1591.56 402.942 1650.7 411.467 1695.34 443.836C1734.78 472.432 1758.81 517.037 1769.74 563.039C1780.67 609.035 1779.65 656.789 1776.86 703.872C1775.39 728.762 1799.32 763.811 1781.08 778.15C1719.82 826.296 1808.04 1000.77 1833.94 1004.67" stroke="#EAE4D6" stroke-width="1.33333" stroke-miterlimit="10"/>
<path d="M458.955 86.8005C561.022 19.3637 708.679 22.2662 807.727 93.6597C875.541 142.536 917.892 216.257 975.938 275.415C1071.75 373.064 1213.02 428.822 1353.4 424.391C1409.52 422.62 1464.99 411.763 1521.1 410.029C1577.22 408.29 1636.36 416.815 1681 449.185C1720.44 477.781 1744.47 522.386 1755.4 568.387C1766.33 614.384 1765.31 662.138 1762.52 709.221C1761.04 734.111 1784.4 769.036 1766.74 783.499C1708.13 831.481 1793.7 1000.77 1819.6 1004.67" stroke="#EAE4D6" stroke-width="1.33333" stroke-miterlimit="10"/>
<path d="M444.611 92.1492C546.678 24.7124 694.335 27.6148 793.383 99.0083C861.197 147.885 903.548 221.606 961.594 280.764C1057.4 378.412 1198.68 434.171 1339.06 429.739C1395.17 427.969 1450.65 417.112 1506.76 415.378C1562.88 413.639 1622.02 422.159 1666.66 454.534C1706.1 483.129 1730.13 527.734 1741.06 573.731C1751.99 619.733 1750.97 667.487 1748.18 714.57C1746.7 739.46 1769.48 774.248 1752.39 788.847C1696.44 836.629 1779.35 1000.77 1805.26 1004.67" stroke="#EAE4D6" stroke-width="1.33333" stroke-miterlimit="10"/>
<path d="M430.271 97.4977C532.337 30.0609 679.994 32.9634 779.042 104.352C846.856 153.233 889.207 226.954 947.253 286.113C1043.06 383.761 1184.34 439.519 1324.71 435.088C1380.83 433.317 1436.31 422.46 1492.42 420.726C1548.53 418.988 1607.67 427.512 1652.31 459.882C1691.76 488.478 1715.78 533.083 1726.71 579.08C1737.64 625.081 1736.63 672.835 1733.84 719.914C1732.36 744.808 1754.58 779.451 1738.05 794.196C1684.75 841.735 1765.01 1000.77 1790.92 1004.67" stroke="#EAE4D6" stroke-width="1.33333" stroke-miterlimit="10"/>
<path d="M415.928 102.846C517.994 35.4095 665.651 38.312 764.699 109.701C832.513 158.582 874.864 232.303 932.91 291.461C1028.72 389.109 1170 444.868 1310.38 440.437C1366.49 438.661 1421.96 427.809 1478.07 426.075C1534.19 424.336 1593.33 432.856 1637.97 465.231C1677.41 493.827 1701.44 538.431 1712.37 584.428C1723.3 630.425 1722.28 678.184 1719.49 725.262C1718.02 750.157 1739.68 784.64 1723.71 799.544C1673.05 846.796 1750.67 1000.77 1776.58 1004.67" stroke="#EAE4D6" stroke-width="1.33333" stroke-miterlimit="10"/>
<path d="M401.585 108.195C503.651 40.7581 651.308 43.6605 750.356 115.049C818.171 163.926 860.521 237.652 918.567 296.81C1014.38 394.458 1155.65 450.216 1296.03 445.785C1352.15 444.01 1407.62 433.158 1463.73 431.419C1519.85 429.685 1578.99 438.205 1623.63 470.579C1663.07 499.175 1687.1 543.78 1698.03 589.777C1708.96 635.774 1707.94 683.532 1705.15 730.611C1703.67 755.505 1724.79 789.819 1709.37 804.893C1661.34 851.816 1736.33 1000.77 1762.23 1004.67" stroke="#EAE4D6" stroke-width="1.33333" stroke-miterlimit="10"/>
<path d="M387.243 113.543C489.309 46.1066 636.967 49.0091 736.015 120.398C803.829 169.279 846.179 242.995 904.226 302.158C1000.03 399.806 1141.31 455.565 1281.69 451.129C1337.8 449.358 1393.28 438.506 1449.39 436.767C1505.51 435.033 1564.65 443.553 1609.29 475.928C1648.73 504.524 1672.76 549.129 1683.69 595.126C1694.62 641.122 1693.6 688.876 1690.81 735.959C1689.33 760.854 1709.9 794.985 1695.02 810.242C1649.62 856.781 1721.99 1000.77 1747.89 1004.67" stroke="#EAE4D6" stroke-width="1.33333" stroke-miterlimit="10"/>
<path d="M372.9 118.892C474.967 51.4553 622.624 54.3577 721.672 125.747C789.486 174.623 831.836 248.344 889.883 307.507C985.691 405.155 1126.97 460.914 1267.35 456.482C1323.46 454.707 1378.93 443.855 1435.05 442.116C1491.16 440.382 1550.3 448.902 1594.94 481.277C1634.39 509.872 1658.41 554.477 1669.34 600.474C1680.27 646.471 1679.26 694.225 1676.47 741.308C1674.99 766.202 1695.02 800.138 1680.68 815.59C1637.88 861.697 1707.64 1000.77 1733.55 1004.67" stroke="#EAE4D6" stroke-width="1.33333" stroke-miterlimit="10"/>
<path d="M358.558 124.236C460.625 56.8038 608.281 59.7062 707.329 131.095C775.143 179.972 817.494 253.693 875.54 312.856C971.348 410.504 1112.63 466.262 1253.01 461.826C1309.12 460.056 1364.59 449.203 1420.7 447.465C1476.82 445.726 1535.96 454.251 1580.6 486.625C1620.04 515.221 1644.07 559.826 1655 605.823C1665.93 651.82 1664.91 699.573 1662.12 746.656C1660.65 771.551 1680.15 805.272 1666.34 820.934C1626.11 866.561 1693.3 1000.77 1719.21 1004.67" stroke="#EAE4D6" stroke-width="1.33333" stroke-miterlimit="10"/>
<path d="M344.216 129.585C446.283 62.1478 593.939 65.0549 692.987 136.444C760.801 185.32 803.152 259.041 861.198 318.204C957.006 415.852 1098.28 471.611 1238.66 467.175C1294.78 465.404 1350.25 454.552 1406.36 452.813C1462.48 451.074 1521.62 459.599 1566.26 491.969C1605.7 520.569 1629.73 565.174 1640.66 611.171C1651.59 657.168 1650.57 704.922 1647.78 752.005C1646.3 776.9 1665.27 810.392 1652 826.283C1614.32 871.367 1678.96 1000.77 1704.86 1004.67" stroke="#EAE4D6" stroke-width="1.33333" stroke-miterlimit="10"/>
<path d="M329.873 134.933C431.94 67.4964 579.597 70.4033 678.644 141.792C746.459 190.669 788.809 264.39 846.855 323.553C942.663 421.201 1083.94 476.959 1224.32 472.523C1280.43 470.753 1335.91 459.9 1392.02 458.162C1448.14 456.423 1507.28 464.948 1551.92 497.318C1591.36 525.918 1615.39 570.523 1626.32 616.52C1637.25 662.517 1636.23 710.271 1633.44 757.354C1631.96 782.248 1650.4 815.499 1637.65 831.631C1602.5 876.118 1664.62 1000.77 1690.52 1004.67" stroke="#EAE4D6" stroke-width="1.33333" stroke-miterlimit="10"/>
<path d="M315.532 140.282C417.599 72.8449 565.255 75.752 664.303 147.141C732.117 196.017 774.468 269.738 832.514 328.901C928.322 426.545 1069.6 482.303 1209.98 477.872C1266.09 476.101 1321.57 465.249 1377.68 463.51C1433.8 461.772 1492.94 470.296 1537.58 502.666C1577.02 531.267 1601.05 575.872 1611.98 621.868C1622.91 667.865 1621.89 715.619 1619.1 762.702C1617.62 787.597 1635.53 820.587 1623.31 836.98C1590.64 880.814 1650.27 1000.77 1676.18 1004.67" stroke="#EAE4D6" stroke-width="1.33333" stroke-miterlimit="10"/>
<path d="M301.188 145.63C403.255 78.1935 550.912 81.096 649.959 152.49C717.774 201.366 760.124 275.087 818.17 334.25C913.978 431.893 1055.26 487.652 1195.64 483.221C1251.75 481.45 1307.22 470.598 1363.33 468.859C1419.45 467.12 1478.59 475.645 1523.23 508.015C1562.67 536.615 1586.7 581.22 1597.63 627.217C1608.56 673.214 1607.54 720.968 1604.76 768.051C1603.28 792.945 1617.25 823.905 1608.97 842.328C1570.95 879.463 1635.93 1000.77 1661.84 1004.67" stroke="#EAE4D6" stroke-width="1.33333" stroke-miterlimit="10"/>
<path d="M286.846 150.979C388.912 83.5421 536.569 86.4491 635.617 157.838C703.431 206.715 745.781 280.436 803.828 339.594C899.636 437.242 1040.91 493 1181.29 488.569C1237.41 486.798 1292.88 475.946 1348.99 474.207C1405.11 472.469 1464.25 480.994 1508.89 513.363C1548.33 541.964 1572.36 586.569 1583.29 632.566C1594.22 678.562 1593.2 726.316 1590.41 773.399C1588.93 798.289 1602.15 828.994 1594.63 847.677C1558.78 884.177 1621.59 1000.77 1647.49 1004.67" stroke="#EAE4D6" stroke-width="1.33333" stroke-miterlimit="10"/>
<path d="M272.505 156.327C374.572 88.8906 522.228 91.7931 621.276 163.187C689.09 212.063 731.441 285.784 789.487 344.942C885.295 442.591 1026.57 498.349 1166.95 493.918C1223.07 492.147 1278.54 481.295 1334.65 479.556C1390.77 477.817 1449.91 486.342 1494.55 518.712C1533.99 547.312 1558.02 591.917 1568.95 637.914C1579.88 683.911 1578.86 731.665 1576.07 778.748C1574.59 803.638 1587.05 834.082 1580.29 853.026C1546.61 888.896 1607.25 1000.77 1633.15 1004.67" stroke="#EAE4D6" stroke-width="1.33333" stroke-miterlimit="10"/>
<path d="M258.161 161.676C360.228 94.2393 507.884 97.1418 606.932 168.535C674.746 217.412 717.097 291.133 775.143 350.291C870.951 447.939 1012.23 503.698 1152.61 499.266C1208.72 497.496 1264.2 486.643 1320.31 484.905C1376.42 483.166 1435.56 491.691 1480.2 524.061C1519.65 552.656 1543.67 597.266 1554.6 643.263C1565.53 689.26 1564.52 737.013 1561.73 784.096C1560.25 808.987 1571.96 839.17 1565.94 858.374C1534.43 893.61 1592.9 1000.77 1618.81 1004.67" stroke="#EAE4D6" stroke-width="1.33333" stroke-miterlimit="10"/>
<path d="M243.818 167.025C345.885 99.5878 493.546 102.49 592.589 173.884C660.404 222.76 702.754 296.481 760.8 355.64C856.608 453.288 997.886 509.046 1138.27 504.615C1194.38 502.844 1249.85 491.987 1305.96 490.253C1362.08 488.514 1421.22 497.039 1465.86 529.409C1505.3 558.005 1529.33 602.61 1540.26 648.611C1551.19 694.608 1550.17 742.362 1547.39 789.445C1545.91 814.335 1556.86 844.259 1551.6 863.723C1522.26 898.329 1578.56 1000.77 1604.47 1004.67" stroke="#EAE4D6" stroke-width="1.33333" stroke-miterlimit="10"/>
<path d="M229.478 172.373C331.545 104.937 479.203 107.839 578.249 179.232C646.063 228.109 688.413 301.83 746.459 360.988C842.267 458.636 983.546 514.395 1123.93 509.964C1180.04 508.193 1235.51 497.336 1291.62 495.602C1347.74 493.863 1406.88 502.388 1451.52 534.758C1490.96 563.354 1514.99 607.959 1525.92 653.96C1536.85 699.957 1535.83 747.711 1533.04 794.794C1531.57 819.684 1541.77 849.352 1537.26 869.071C1510.1 903.043 1564.22 1000.77 1590.13 1004.67" stroke="#EAE4D6" stroke-width="1.33333" stroke-miterlimit="10"/>
<path d="M215.135 177.722C317.202 110.285 464.86 113.187 563.906 184.581C631.72 233.457 674.07 307.178 732.117 366.337C827.925 463.985 969.203 519.743 1109.58 515.312C1165.7 513.541 1221.17 502.685 1277.28 500.95C1333.4 499.212 1392.54 507.736 1437.18 540.106C1476.62 568.702 1500.65 613.307 1511.58 659.304C1522.51 705.305 1521.49 753.059 1518.7 800.142C1517.22 825.032 1526.66 854.44 1522.92 874.42C1497.92 907.762 1549.88 1000.77 1575.78 1004.67" stroke="#EAE4D6" stroke-width="1.33333" stroke-miterlimit="10"/>
<path d="M200.793 183.07C302.86 115.634 450.518 118.536 549.563 189.93C617.378 238.806 659.728 312.527 717.774 371.685C813.582 469.333 954.86 525.092 1095.24 520.661C1151.35 518.885 1206.83 508.033 1262.94 506.299C1319.06 504.56 1378.2 513.081 1422.84 545.455C1462.28 574.051 1486.31 618.656 1497.24 664.653C1508.17 710.649 1507.15 758.408 1504.36 805.486C1502.88 830.381 1511.57 859.529 1508.57 879.769C1485.75 912.481 1535.54 1000.77 1561.44 1004.67" stroke="#EAE4D6" stroke-width="1.33333" stroke-miterlimit="10"/>
<path d="M186.45 188.419C288.517 120.982 436.175 123.885 535.221 195.278C603.035 244.155 645.385 317.876 703.432 377.034C799.24 474.682 940.518 530.441 1080.9 526.009C1137.01 524.234 1192.48 513.382 1248.6 511.643C1304.71 509.909 1363.85 518.429 1408.49 550.804C1447.93 579.399 1471.96 624.004 1482.89 670.001C1493.82 715.998 1492.81 763.756 1490.02 810.835C1488.54 835.729 1496.47 864.617 1494.23 885.117C1473.58 917.195 1521.2 1000.77 1547.1 1004.67" stroke="#EAE4D6" stroke-width="1.33333" stroke-miterlimit="10"/>
<path d="M172.107 193.768C274.174 126.331 421.833 129.233 520.878 200.622C588.692 249.499 631.043 323.22 689.089 382.383C784.897 480.031 926.175 535.789 1066.56 531.358C1122.67 529.583 1178.14 518.73 1234.26 516.991C1290.37 515.257 1349.51 523.778 1394.15 556.152C1433.59 584.748 1457.62 629.353 1468.55 675.35C1479.48 721.347 1478.46 769.105 1475.67 816.183C1474.2 841.078 1481.37 869.706 1479.89 890.466C1461.41 921.914 1506.85 1000.77 1532.76 1004.67" stroke="#EAE4D6" stroke-width="1.33333" stroke-miterlimit="10"/>
<path d="M157.766 199.116C259.833 131.679 407.491 134.582 506.536 205.971C574.35 254.847 616.701 328.573 674.747 387.731C770.555 485.379 911.833 541.138 1052.21 536.706C1108.33 534.931 1163.8 524.079 1219.92 522.34C1276.03 520.606 1335.17 529.126 1379.81 561.501C1419.25 590.096 1443.28 634.701 1454.21 680.698C1465.14 726.695 1464.12 774.449 1461.33 821.532C1459.85 846.427 1466.28 874.794 1465.55 895.814C1449.24 926.628 1492.51 1000.77 1518.41 1004.67" stroke="#EAE4D6" stroke-width="1.33333" stroke-miterlimit="10"/>
<path d="M143.423 204.465C245.49 137.028 393.148 139.93 492.193 211.319C560.008 260.196 602.358 333.917 660.404 393.08C756.212 490.728 897.49 546.486 1037.87 542.05C1093.98 540.28 1149.46 529.427 1205.57 527.689C1261.69 525.95 1320.83 534.475 1365.47 566.849C1404.91 595.445 1428.94 640.05 1439.87 686.047C1450.8 732.044 1449.78 779.798 1446.99 826.881C1445.51 851.775 1451.18 879.883 1451.2 901.163C1437.07 931.347 1478.17 1000.77 1504.07 1004.67" stroke="#EAE4D6" stroke-width="1.33333" stroke-miterlimit="10"/>
<path d="M129.082 209.813C231.149 142.376 378.807 145.279 477.854 216.668C545.667 265.544 588.017 339.265 646.063 398.428C741.871 496.076 883.15 551.835 1023.53 547.399C1079.64 545.628 1135.12 534.776 1191.23 533.037C1247.34 531.299 1306.49 539.823 1351.13 572.198C1390.57 600.794 1414.6 645.398 1425.52 691.395C1436.45 737.392 1435.44 785.146 1432.65 832.229C1431.17 857.124 1436.08 884.971 1436.86 906.507C1424.9 936.061 1463.83 1000.77 1489.73 1004.67" stroke="#EAE4D6" stroke-width="1.33333" stroke-miterlimit="10"/>
<path d="M114.738 215.157C216.805 147.725 364.464 150.627 463.511 222.016C531.323 270.893 573.673 344.614 631.72 403.777C727.528 501.425 868.806 557.183 1009.19 552.748C1065.3 550.977 1120.77 540.125 1176.89 538.386C1233 536.647 1292.14 545.172 1336.79 577.542C1376.22 606.142 1400.25 650.747 1411.18 696.744C1422.11 742.741 1421.09 790.495 1418.3 837.578C1416.83 862.472 1420.98 890.06 1422.52 911.855C1412.72 940.78 1449.49 1000.77 1475.39 1004.67" stroke="#EAE4D6" stroke-width="1.33333" stroke-miterlimit="10"/>
<path d="M100.396 220.506C202.463 153.069 350.121 155.976 449.168 227.365C516.98 276.241 559.331 349.962 617.377 409.125C713.185 506.769 854.468 562.532 994.844 558.096C1050.96 556.325 1106.43 545.473 1162.55 543.734C1218.66 541.996 1277.8 550.521 1322.44 582.89C1361.88 611.491 1385.91 656.096 1396.84 702.093C1407.77 748.089 1406.75 795.843 1403.96 842.926C1402.48 867.821 1409.95 895.107 1408.18 917.204C1405.84 946.325 1435.14 1000.77 1461.04 1004.67" stroke="#EAE4D6" stroke-width="1.33333" stroke-miterlimit="10"/>
<path d="M86.0547 225.854C188.121 158.418 335.78 161.325 434.827 232.714C502.639 281.59 544.989 355.311 603.036 414.474C698.843 512.118 840.127 567.876 980.502 563.445C1036.61 561.674 1092.09 550.822 1148.2 549.083C1204.32 547.344 1263.46 555.869 1308.1 588.239C1347.54 616.839 1371.57 661.444 1382.5 707.441C1393.43 753.438 1392.41 801.192 1389.62 848.275C1388.14 873.17 1394.5 900.063 1393.83 922.553C1393 950.683 1420.8 1000.77 1446.7 1004.67" stroke="#EAE4D6" stroke-width="1.33333" stroke-miterlimit="10"/>
<path d="M71.7119 231.203C173.779 163.766 321.437 166.669 420.484 238.062C488.296 286.939 530.647 360.66 588.693 419.823C684.501 517.466 825.784 573.225 966.16 568.793C1022.27 567.023 1077.75 556.17 1133.86 554.432C1189.97 552.693 1249.11 561.218 1293.76 593.588C1333.2 622.188 1357.22 666.793 1368.15 712.79C1379.09 758.787 1378.07 806.54 1375.28 853.623C1373.8 878.518 1378.96 905.046 1379.49 927.901C1380.12 955.105 1406.46 1000.77 1432.36 1004.67" stroke="#EAE4D6" stroke-width="1.33333" stroke-miterlimit="10"/>
<path d="M57.3701 236.552C159.437 169.115 307.096 172.017 406.143 243.411C473.954 292.287 516.305 366.008 574.351 425.171C670.159 522.815 811.442 578.573 951.818 574.142C1007.93 572.371 1063.4 561.519 1119.52 559.78C1175.63 558.041 1234.77 566.566 1279.42 598.936C1318.85 627.536 1342.88 672.141 1353.81 718.138C1364.75 764.135 1363.72 811.889 1360.94 858.972C1359.46 883.862 1363.35 910.076 1365.15 933.25C1367.19 959.596 1392.12 1000.77 1418.02 1004.67" stroke="#EAE4D6" stroke-width="1.33333" stroke-miterlimit="10"/>
<path d="M43.0273 241.9C145.094 174.463 292.753 177.366 391.8 248.759C459.611 297.636 501.962 371.357 560.008 430.515C655.816 528.163 797.099 583.922 937.475 579.49C993.587 577.72 1049.06 566.868 1105.18 565.129C1161.29 563.39 1220.43 571.915 1265.07 604.285C1304.51 632.885 1328.54 677.49 1339.47 723.487C1350.4 769.484 1349.38 817.238 1346.59 864.321C1345.11 889.211 1347.65 915.15 1350.81 938.598C1354.24 964.173 1377.77 1000.77 1403.67 1004.67" stroke="#EAE4D6" stroke-width="1.33333" stroke-miterlimit="10"/>
<path d="M28.6846 247.249C130.752 179.812 278.41 182.714 377.457 254.108C445.269 302.984 487.619 376.705 545.666 435.864C641.473 533.512 782.757 589.27 923.132 584.839C979.244 583.068 1034.72 572.216 1090.83 570.477C1146.95 568.739 1206.09 577.263 1250.73 609.633C1290.17 638.229 1314.2 682.839 1325.13 728.835C1336.06 774.832 1335.04 822.586 1332.25 869.669C1330.78 894.559 1331.89 920.289 1336.46 943.947C1341.28 968.851 1363.43 1000.77 1389.33 1004.67" stroke="#EAE4D6" stroke-width="1.33333" stroke-miterlimit="10"/>
<path d="M14.3428 252.597C116.41 185.161 264.068 188.063 363.115 259.457C430.927 308.333 473.278 382.054 531.324 441.212C627.131 538.86 768.415 594.619 908.79 590.188C964.902 588.417 1020.38 577.56 1076.49 575.826C1132.6 574.087 1191.75 582.612 1236.39 614.982C1275.83 643.578 1299.86 688.183 1310.79 734.184C1321.72 780.181 1320.7 827.935 1317.91 875.018C1316.43 899.908 1316.07 925.496 1322.12 949.295C1328.31 973.629 1349.09 1000.77 1374.99 1004.67" stroke="#EAE4D6" stroke-width="1.33333" stroke-miterlimit="10"/>
<path d="M0 257.946C102.067 190.509 249.725 193.412 348.772 264.805C416.584 313.682 458.935 387.403 516.981 446.561C612.789 544.209 754.072 599.968 894.448 595.536C950.56 593.766 1006.03 582.909 1062.15 581.174C1118.26 579.436 1177.4 587.961 1222.05 620.33C1261.48 648.926 1285.51 693.531 1296.44 739.533C1307.38 785.529 1306.35 833.283 1303.57 880.366C1302.09 905.256 1300.21 930.772 1307.78 954.644C1315.35 978.512 1334.75 1000.77 1360.65 1004.67" stroke="#EAE4D6" stroke-width="1.33333" stroke-miterlimit="10"/>
</svg>
