<svg width="44" height="44" viewBox="0 0 44 44" fill="none" xmlns="http://www.w3.org/2000/svg">
<path d="M38.5 34.8333H11V5.5H14.6667V31.1667H38.5V34.8333Z" fill="#EEF3FF"/>
<path d="M36.6654 27.5H18.332V5.5H21.9987V23.8333H36.6654V27.5Z" fill="#A3BDFF"/>
<path d="M38.3527 16.5006H29.3327V5.77557L3.66602 1.50391V42.1672H40.4977L38.3527 16.5006ZM7.33268 5.83057L25.666 8.89224V11.5139L7.33268 17.6189V5.83057ZM25.666 15.3822V17.5822L7.33268 35.9156V21.4872L25.666 15.3822ZM9.91768 38.5006C30.286 18.1322 28.0127 20.1672 28.8193 20.1672L24.236 38.5006H9.91768ZM28.0127 38.5006L32.596 20.1672H34.9793L36.501 38.5006H28.0127Z" fill="#CDD4E4"/>
</svg>
