<svg width="44" height="44" viewBox="0 0 44 44" fill="none" xmlns="http://www.w3.org/2000/svg">
<path d="M27.2999 19.9287C23.8349 22.0004 26.6033 20.3137 24.1466 21.762C23.4391 20.5601 22.3014 19.6718 20.9637 19.2769C19.6261 18.8821 18.1884 19.0102 16.9416 19.6354C15.9699 20.0204 15.4566 20.6987 7.77494 28.4537C6.80342 29.4963 6.27451 30.8753 6.29965 32.3002C6.32479 33.7251 6.90201 35.0845 7.90971 36.0922C8.91741 37.0999 10.2769 37.6772 11.7018 37.7023C13.1266 37.7274 14.5057 37.1985 15.5483 36.227L20.3149 31.4604C21.7461 31.9617 23.2536 32.2099 24.7699 32.1937L18.1149 38.8487C16.3861 40.5185 14.0706 41.4424 11.6671 41.4215C9.26362 41.4006 6.96451 40.4366 5.26493 38.737C3.56536 37.0374 2.60131 34.7383 2.58042 32.3349C2.55954 29.9314 3.48349 27.6159 5.15327 25.887L12.9266 18.1137C13.9151 17.1249 15.1166 16.3753 16.4393 15.9223C17.762 15.4693 19.1708 15.3248 20.5579 15.5C21.945 15.6751 23.2737 16.1653 24.4423 16.9329C25.6108 17.7005 26.5883 18.7252 27.2999 19.9287Z" fill="#EEF3FF"/>
<path d="M11.1191 2.91406L14.7161 2.1954L16.0133 8.68798L12.4163 9.40665L11.1191 2.91406Z" fill="#CDD4E4"/>
<path d="M2.19531 14.7188L2.91398 11.1217L9.40656 12.4189L8.6879 16.0159L2.19531 14.7188Z" fill="#CDD4E4"/>
<path d="M34.6094 31.5625L35.328 27.9655L41.8206 29.2627L41.102 32.8597L34.6094 31.5625Z" fill="#A3BDFF"/>
<path d="M28.0059 35.3477L31.6029 34.629L32.9001 41.1216L29.3031 41.8402L28.0059 35.3477Z" fill="#A3BDFF"/>
<path d="M38.8499 18.1122L31.1683 25.8856C30.1785 26.8735 28.9759 27.622 27.6524 28.0736C26.3288 28.5252 24.9195 28.668 23.5323 28.491C22.1451 28.3141 20.8168 27.8221 19.649 27.0527C18.4812 26.2834 17.505 25.257 16.7949 24.0522L19.9483 22.2189C20.374 22.9437 20.9602 23.5613 21.6618 24.0242C22.3634 24.4871 23.1618 24.783 23.9957 24.8892C24.8295 24.9954 25.6766 24.9091 26.4718 24.6369C27.2671 24.3647 27.9894 23.9138 28.5833 23.3189L36.3566 15.5272C36.897 15.0237 37.3304 14.4165 37.631 13.7418C37.9316 13.0672 38.0932 12.3389 38.1063 11.6004C38.1193 10.8619 37.9834 10.1284 37.7068 9.44351C37.4302 8.75867 37.0185 8.13655 36.4962 7.61428C35.9739 7.09201 35.3518 6.68028 34.667 6.40366C33.9821 6.12704 33.2486 5.99119 32.5101 6.00422C31.7716 6.01725 31.0433 6.17889 30.3686 6.4795C29.694 6.78011 29.0868 7.21353 28.5833 7.7539L23.8166 12.5206C22.4319 12.0357 20.9754 11.7878 19.5083 11.7872C19.2883 11.7872 18.5916 12.5572 25.9799 5.1689C27.7088 3.49911 30.0243 2.57516 32.4278 2.59605C34.8312 2.61694 37.1304 3.58098 38.8299 5.28056C40.5295 6.98013 41.4935 9.27925 41.5144 11.6827C41.5353 14.0862 40.6114 16.4017 38.9416 18.1306L38.8499 18.1122Z" fill="#EEF3FF"/>
</svg>
