<svg width="99" height="35" viewBox="0 0 99 35" fill="none" xmlns="http://www.w3.org/2000/svg">
<path d="M81.6035 28.9518V8.12207H84.8738L95.7454 25.4753V8.12207H98.3087V28.9518H95.0973L84.1667 11.6575V28.9518H81.6035Z" fill="#ECEFF9"/>
<path d="M76.2148 28.9518V8.12207H78.7781V28.9518H76.2148Z" fill="#ECEFF9"/>
<path d="M56.8789 28.952V8.09277H65.6292C67.2595 8.09277 68.6933 8.32847 69.9307 8.79986C71.1681 9.25162 72.1404 10.0176 72.8475 11.0979C73.5546 12.1585 73.9081 13.6218 73.9081 15.4878C73.9081 17.1966 73.5349 18.6206 72.7886 19.7598C72.0422 20.8793 71.0306 21.7141 69.7539 22.2641C68.4772 22.814 67.0336 23.089 65.423 23.089H62.2116V28.952H56.8789ZM62.2116 18.3456H65.423C66.4443 18.3456 67.2398 18.1001 67.8094 17.609C68.379 17.118 68.6638 16.4207 68.6638 15.5172C68.6638 14.7119 68.4085 14.103 67.8978 13.6906C67.4068 13.2585 66.572 13.0424 65.3935 13.0424H62.2116V18.3456Z" fill="#ECEFF9"/>
<path d="M39.8477 28.952V8.09277H55.5805V13.0424H45.1803V16.2243H53.7539V20.9383H45.1803V24.0318H55.5805V28.952H39.8477Z" fill="#ECEFF9"/>
<path d="M27.1597 28.952V13.0424H20.9727V8.09277H38.709V13.0424H32.4924V28.952H27.1597Z" fill="#ECEFF9"/>
<path d="M15.2819 3.8258V30.3739L7.22266 34.1665V0.0332031L15.2819 3.8258ZM8.1708 32.6721L14.3338 29.7721V4.42718L8.1708 1.52718V32.6721Z" fill="#434854"/>
<path d="M8.62989 28.486C7.15871 28.0918 5.85969 27.47 4.73283 26.6207C3.62483 25.7764 2.81005 24.7055 2.28849 23.4078C1.78579 22.1152 1.67326 20.6114 1.95088 18.8962L7.10001 20.276C7.08467 20.8613 7.20881 21.3788 7.47243 21.8284C7.74132 22.2583 8.11877 22.6226 8.60478 22.9213C9.10966 23.225 9.6733 23.4602 10.2957 23.627C10.6729 23.7281 11.0701 23.7924 11.4873 23.82C11.9044 23.8475 12.274 23.7887 12.5959 23.6433C12.9367 23.5031 13.1624 23.2267 13.2729 22.8142C13.3519 22.5196 13.3302 22.2611 13.2078 22.0388C13.1095 21.802 12.9253 21.5842 12.6551 21.3855C12.409 21.1722 12.0822 20.9583 11.6747 20.7438C11.5155 20.6591 11.3468 20.5718 11.1688 20.482C11.0095 20.3972 10.8503 20.3124 10.6911 20.2276C10.5319 20.1429 10.3632 20.0556 10.1851 19.9658C9.28109 19.4919 8.42268 18.9988 7.60988 18.4862C6.80235 17.9541 6.12224 17.3613 5.56955 16.7079C5.01687 16.0546 4.64774 15.282 4.46218 14.3901C4.27663 13.4983 4.34438 12.4533 4.66543 11.2551C4.96017 10.1551 5.39616 9.28244 5.97339 8.6371C6.55588 7.97211 7.21886 7.49712 7.96234 7.21212C8.71107 6.90747 9.48482 6.73585 10.2836 6.69723C11.0823 6.65862 11.8506 6.69606 12.5884 6.80953C13.3314 6.90337 13.9858 7.02609 14.5517 7.17771C15.9474 7.55169 17.0997 8.15519 18.0086 8.9882C18.9227 9.80157 19.5609 10.8147 19.9233 12.0276C20.3045 13.2455 20.3637 14.6088 20.101 16.1174L15.1499 14.7907C15.2091 14.3434 15.1367 13.9345 14.9328 13.5641C14.734 13.174 14.4294 12.8397 14.0188 12.5613C13.6324 12.2683 13.1468 12.0434 12.5621 11.8868C12.2226 11.7958 11.8941 11.7394 11.5765 11.7174C11.259 11.6955 10.9712 11.7131 10.7133 11.7703C10.4742 11.8326 10.265 11.9344 10.0856 12.0758C9.90623 12.2172 9.78495 12.4058 9.72179 12.6415C9.63758 12.9558 9.67969 13.2513 9.84813 13.528C10.0354 13.8098 10.3344 14.0899 10.7449 14.3683C11.1744 14.6518 11.7049 14.9729 12.3365 15.3316C12.6361 15.4961 12.9263 15.6581 13.207 15.8175C13.493 15.9573 13.7763 16.1069 14.0571 16.2663C14.8343 16.6851 15.5471 17.1182 16.1954 17.5656C16.8626 18.0181 17.4144 18.5238 17.8509 19.0829C18.3062 19.647 18.5994 20.3256 18.7306 21.1186C18.867 21.8921 18.7905 22.8189 18.501 23.8993C18.1694 25.1368 17.6615 26.127 16.9772 26.87C16.2983 27.5933 15.5011 28.1165 14.5856 28.4397C13.6702 28.7628 12.6973 28.9232 11.667 28.9208C10.6419 28.8988 9.62954 28.7538 8.62989 28.486Z" fill="#A3BDFF"/>
<rect x="8.17188" y="4.77441" width="5.68889" height="24.1778" fill="url(#paint0_linear_263_1094)"/>
<rect opacity="0.7" x="8.17188" y="4.77441" width="4.26667" height="24.1778" fill="url(#paint1_linear_263_1094)"/>
<path d="M15.2819 3.76111V6.96019H14.3338V4.36482L8.1708 1.48843V32.7111L14.3338 29.8347V28.6227H15.2819V30.4389L7.22266 34.2V0L15.2819 3.76111Z" fill="url(#paint2_linear_263_1094)"/>
<defs>
<linearGradient id="paint0_linear_263_1094" x1="8.57822" y1="15.4411" x2="13.8608" y2="15.4411" gradientUnits="userSpaceOnUse">
<stop/>
<stop offset="1" stop-opacity="0"/>
</linearGradient>
<linearGradient id="paint1_linear_263_1094" x1="8.47664" y1="15.4411" x2="12.4385" y2="15.4411" gradientUnits="userSpaceOnUse">
<stop/>
<stop offset="1" stop-opacity="0"/>
</linearGradient>
<linearGradient id="paint2_linear_263_1094" x1="8.4083" y1="15.6778" x2="14.3342" y2="15.6778" gradientUnits="userSpaceOnUse">
<stop stop-color="#767F94"/>
<stop offset="1" stop-color="#434854"/>
</linearGradient>
</defs>
</svg>
