<svg width="32" height="32" viewBox="0 0 32 32" fill="none" xmlns="http://www.w3.org/2000/svg">
<path d="M14.6442 26.9528L7.23073 22.6692C6.80381 22.423 6.47112 22.0942 6.23266 21.6826C5.9942 21.2711 5.87497 20.8192 5.87497 20.3269V11.7596C5.87497 11.2673 5.9942 10.8153 6.23266 10.4038C6.47112 9.99227 6.80381 9.66343 7.23073 9.41728L14.6442 5.13362C15.0711 4.88747 15.523 4.7644 15.9999 4.7644C16.4769 4.7644 16.9288 4.88747 17.3557 5.13362L24.7692 9.41728C25.1961 9.66343 25.5288 9.99227 25.7672 10.4038C26.0057 10.8153 26.1249 11.2673 26.1249 11.7596V20.3269C26.1249 20.8192 26.0057 21.2711 25.7672 21.6826C25.5288 22.0942 25.1961 22.423 24.7692 22.6692L17.3557 26.9528C16.9288 27.199 16.4769 27.322 15.9999 27.322C15.523 27.322 15.0711 27.199 14.6442 26.9528ZM14.875 24.4981V16.6749L8.12492 12.798V20.3269C8.12492 20.4038 8.14415 20.4759 8.18261 20.5432C8.22108 20.6105 8.27878 20.6682 8.3557 20.7163L14.875 24.4981ZM17.1249 24.4981L23.6442 20.7163C23.7211 20.6682 23.7788 20.6105 23.8173 20.5432C23.8557 20.4759 23.875 20.4038 23.875 20.3269V12.798L17.1249 16.6749V24.4981ZM1.75 8.49995V4.46152C1.75 3.71345 2.0149 3.07451 2.54471 2.54471C3.07451 2.0149 3.71345 1.75 4.46152 1.75H8.49995V3.99995H4.46152C4.32689 3.99995 4.21631 4.04322 4.12976 4.12976C4.04322 4.21631 3.99995 4.32689 3.99995 4.46152V8.49995H1.75ZM8.49995 30.2499H4.46152C3.71345 30.2499 3.07451 29.985 2.54471 29.4552C2.0149 28.9254 1.75 28.2864 1.75 27.5384V23.4999H3.99995V27.5384C3.99995 27.673 4.04322 27.7836 4.12976 27.8701C4.21631 27.9567 4.32689 27.9999 4.46152 27.9999H8.49995V30.2499ZM23.4999 30.2499V27.9999H27.5384C27.673 27.9999 27.7836 27.9567 27.8701 27.8701C27.9567 27.7836 27.9999 27.673 27.9999 27.5384V23.4999H30.2499V27.5384C30.2499 28.2864 29.985 28.9254 29.4552 29.4552C28.9254 29.985 28.2864 30.2499 27.5384 30.2499H23.4999ZM27.9999 8.49995V4.46152C27.9999 4.32689 27.9567 4.21631 27.8701 4.12976C27.7836 4.04322 27.673 3.99995 27.5384 3.99995H23.4999V1.75H27.5384C28.2864 1.75 28.9254 2.0149 29.4552 2.54471C29.985 3.07451 30.2499 3.71345 30.2499 4.46152V8.49995H27.9999ZM15.9999 14.7365L22.7038 10.8307L16.2307 7.10089C16.1538 7.05281 16.0769 7.02877 15.9999 7.02877C15.923 7.02877 15.8461 7.05281 15.7692 7.10089L9.29604 10.8307L15.9999 14.7365Z" fill="#A3BDFF"/>
</svg>
