<svg width="44" height="44" viewBox="0 0 44 44" fill="none" xmlns="http://www.w3.org/2000/svg">
<path d="M25.668 25.6659L30.4163 26.6193C31.662 26.8691 32.7827 27.5426 33.5882 28.5251C34.3936 29.5077 34.834 30.7388 34.8346 32.0093V38.4993H9.16797V32.0093C9.16857 30.7388 9.60899 29.5077 10.4144 28.5251C11.2199 27.5426 12.3406 26.8691 13.5863 26.6193C19.5446 25.4276 16.868 25.6659 25.668 25.6659Z" fill="#191C22"/>
<path d="M29.3337 16.4993V18.3327C29.3337 20.2776 28.561 22.1429 27.1858 23.5181C25.8105 24.8934 23.9452 25.666 22.0003 25.666C20.0554 25.666 18.1901 24.8934 16.8149 23.5181C15.4396 22.1429 14.667 20.2776 14.667 18.3327V16.4993C14.667 14.5544 15.4396 12.6892 16.8149 11.3139C18.1901 9.93863 20.0554 9.16602 22.0003 9.16602C23.9452 9.16602 25.8105 9.93863 27.1858 11.3139C28.561 12.6892 29.3337 14.5544 29.3337 16.4993Z" fill="#191C22"/>
<path d="M42.1676 26.6566V36.6666H34.8343V32.0099C34.8337 30.7394 34.3933 29.5083 33.5879 28.5258C32.7824 27.5432 31.6617 26.8698 30.416 26.6199C24.7143 25.4832 26.621 25.6666 22.001 25.6666C23.6258 25.6654 25.2042 25.1246 26.4884 24.1291C27.7726 23.1336 28.6898 21.7398 29.096 20.1666C29.342 18.9609 29.4222 17.7273 29.3343 16.4999C29.3353 14.5956 28.5955 12.7656 27.2714 11.3969C25.9472 10.0283 24.1426 9.22847 22.2393 9.16658C22.6897 7.44324 23.7519 5.94274 25.2277 4.94525C26.7034 3.94776 28.4917 3.52149 30.2587 3.74601C32.0257 3.97054 33.6506 4.83051 34.83 6.16537C36.0093 7.50023 36.6626 9.2187 36.6676 10.9999C36.6676 16.4999 37.016 18.3332 35.3476 20.6799L37.951 21.3216C39.1502 21.6093 40.2179 22.2918 40.9826 23.2593C41.7473 24.2269 42.1647 25.4233 42.1676 26.6566Z" fill="#A3BDFF"/>
<path opacity="0.25" d="M1.83398 26.6566V36.6666H9.16732V32.0099C9.16792 30.7394 9.60834 29.5083 10.4138 28.5258C11.2192 27.5432 12.34 26.8698 13.5857 26.6199C19.2873 25.4832 17.3807 25.6666 22.0007 25.6666C20.3758 25.6654 18.7974 25.1246 17.5132 24.1291C16.2291 23.1336 15.3119 21.7398 14.9057 20.1666C14.6596 18.9609 14.5794 17.7273 14.6673 16.4999C14.6663 14.5956 15.4061 12.7656 16.7303 11.3969C18.0544 10.0283 19.859 9.22847 21.7623 9.16658C21.3119 7.44324 20.2497 5.94274 18.774 4.94525C17.2983 3.94776 15.5099 3.52149 13.7429 3.74601C11.9759 3.97054 10.351 4.83051 9.17165 6.16537C7.99228 7.50023 7.33907 9.2187 7.33398 10.9999C7.33398 16.4999 6.98565 18.3332 8.65398 20.6799L6.05065 21.3216C4.85144 21.6093 3.78373 22.2918 3.01901 23.2593C2.25429 24.2269 1.83694 25.4233 1.83398 26.6566Z" fill="#EEF3FF"/>
<path d="M30.764 24.824L28.8023 24.4207C29.7287 23.3395 30.4179 22.0759 30.8253 20.7116C31.2326 19.3474 31.3492 17.9128 31.1673 16.5007C31.1673 14.0695 30.2015 11.7379 28.4825 10.0188C26.7634 8.29976 24.4318 7.33398 22.0007 7.33398C19.5695 7.33398 17.2379 8.29976 15.5188 10.0188C13.7998 11.7379 12.834 14.0695 12.834 16.5007C12.834 19.1223 12.6873 21.634 15.2173 24.439L13.2373 24.824C11.5742 25.1546 10.077 26.0515 9.00066 27.3618C7.92432 28.6721 7.33535 30.3149 7.33398 32.0107V40.334H36.6673V32.0107C36.666 30.3149 36.077 28.6721 35.0006 27.3618C33.9243 26.0515 32.4271 25.1546 30.764 24.824ZM16.5007 16.5007C16.5007 15.042 17.0801 13.643 18.1116 12.6116C19.143 11.5801 20.542 11.0007 22.0007 11.0007C23.4593 11.0007 24.8583 11.5801 25.8897 12.6116C26.9212 13.643 27.5007 15.042 27.5007 16.5007V18.334C27.5007 19.7927 26.9212 21.1916 25.8897 22.2231C24.8583 23.2545 23.4593 23.834 22.0007 23.834C20.542 23.834 19.143 23.2545 18.1116 22.2231C17.0801 21.1916 16.5007 19.7927 16.5007 18.334V16.5007ZM33.0007 36.6673H11.0007V32.0107C10.9842 31.1503 11.2708 30.3115 11.8104 29.6412C12.3501 28.9708 13.1083 28.5116 13.9523 28.344C19.4523 27.244 17.9673 27.4273 20.1673 27.4273V31.094H23.834V27.5007C26.034 27.5007 24.5856 27.3173 30.049 28.4173C30.893 28.585 31.6512 29.0442 32.1909 29.7145C32.7305 30.3848 33.0171 31.2236 33.0007 32.084V36.6673Z" fill="#EEF3FF"/>
</svg>
