<svg width="32" height="32" viewBox="0 0 32 32" fill="none" xmlns="http://www.w3.org/2000/svg">
<path d="M8.41346 29.0965L8.125 26.662L12.1981 15.4351C12.4865 15.6986 12.7942 15.9154 13.1211 16.0856C13.448 16.2558 13.7942 16.3889 14.1596 16.4851L10.2076 27.3774L8.41346 29.0965ZM23.5865 29.0965L21.7923 27.3774L17.8404 16.4851C18.2058 16.3889 18.5519 16.2558 18.8788 16.0856C19.2057 15.9154 19.5134 15.6986 19.8019 15.4351L23.8749 26.662L23.5865 29.0965ZM16 14.5293C14.8557 14.5293 13.8822 14.1278 13.0793 13.325C12.2764 12.5221 11.875 11.5485 11.875 10.4043C11.875 9.4293 12.1683 8.58699 12.7548 7.87738C13.3414 7.16777 14.0481 6.70623 14.875 6.49278V2.9043H17.1249V6.49278C17.9519 6.70623 18.6586 7.16777 19.2451 7.87738C19.8317 8.58699 20.1249 9.4293 20.1249 10.4043C20.1249 11.5485 19.7235 12.5221 18.9206 13.325C18.1177 14.1278 17.1442 14.5293 16 14.5293ZM16 12.2793C16.5211 12.2793 16.9639 12.0971 17.3284 11.7327C17.6928 11.3683 17.875 10.9255 17.875 10.4043C17.875 9.88314 17.6928 9.44034 17.3284 9.07591C16.9639 8.71148 16.5211 8.52927 16 8.52927C15.4788 8.52927 15.036 8.71148 14.6716 9.07591C14.3072 9.44034 14.1249 9.88314 14.1249 10.4043C14.1249 10.9255 14.3072 11.3683 14.6716 11.7327C15.036 12.0971 15.4788 12.2793 16 12.2793Z" fill="#A3BDFF"/>
</svg>
