<svg width="44" height="44" viewBox="0 0 44 44" fill="none" xmlns="http://www.w3.org/2000/svg">
<path d="M5.5 5.5H38.5V31.1667H5.5V5.5Z" fill="#191C22"/>
<path d="M16.5 23.834C19.5376 23.834 22 21.3716 22 18.334C22 15.2964 19.5376 12.834 16.5 12.834C13.4624 12.834 11 15.2964 11 18.334C11 21.3716 13.4624 23.834 16.5 23.834Z" fill="#A3BDFF"/>
<path d="M42.1673 7.33398V3.66732H23.834V1.83398H20.1673V3.66732H1.83398V7.33398H3.66732V29.334H1.83398V33.0007H20.1673V35.5307L12.834 39.1973V42.1673H16.5007V41.4707L20.1673 39.6373V42.1673H23.834V39.6373L27.5007 41.4707V42.1673H31.1673V39.1973L23.834 35.5307V33.0007H42.1673V29.334H40.334V7.33398H42.1673ZM36.6673 29.334H7.33398V7.33398H36.6673V29.334Z" fill="#CDD4E4"/>
<path d="M25.668 12.834H33.0013V16.5007H25.668V12.834Z" fill="#CDD4E4"/>
<path d="M25.668 20.168H33.0013V23.8346H25.668V20.168Z" fill="#CDD4E4"/>
<path d="M22 18.334H16.5V12.834C17.9587 12.834 19.3576 13.4134 20.3891 14.4449C21.4205 15.4763 22 16.8753 22 18.334Z" fill="#EEF3FF"/>
</svg>
