<svg width="96" height="96" viewBox="0 0 96 96" fill="none" xmlns="http://www.w3.org/2000/svg">
<path d="M58.9199 25.7637L70.2319 37.0757L19.3279 87.9797L8.01592 76.6677L58.9199 25.7637Z" fill="#242935"/>
<path d="M19.3194 93.64L2.35938 76.68L58.9194 20L75.9994 37.08L19.3194 93.64ZM13.6394 76.68L19.3194 82.36L64.5594 37.08L58.9194 31.44L13.6394 76.68Z" fill="url(#paint0_linear_166_1378)"/>
<path d="M58.8926 31.4277L64.5494 37.0846L53.2357 48.3983L47.5789 42.7414L58.8926 31.4277Z" fill="#EEF3FF"/>
<path d="M32 12L34.16 17.84L40 20L34.16 22.16L32 28L29.84 22.16L24 20L29.84 17.84L32 12Z" fill="url(#paint1_radial_166_1378)"/>
<path d="M80 4L83.24 12.76L92 16L83.24 19.24L80 28L76.76 19.24L68 16L76.76 12.76L80 4Z" fill="url(#paint2_radial_166_1378)"/>
<path d="M84 40L86.16 45.84L92 48L86.16 50.16L84 56L81.84 50.16L76 48L81.84 45.84L84 40Z" fill="url(#paint3_radial_166_1378)"/>
<defs>
<linearGradient id="paint0_linear_166_1378" x1="39.1794" y1="20" x2="39.1794" y2="93.64" gradientUnits="userSpaceOnUse">
<stop stop-color="#A3BDFF"/>
<stop offset="1" stop-color="#627199"/>
</linearGradient>
<radialGradient id="paint1_radial_166_1378" cx="0" cy="0" r="1" gradientUnits="userSpaceOnUse" gradientTransform="translate(32 20) rotate(90) scale(8)">
<stop stop-color="#CDD4E4"/>
<stop offset="0.966346" stop-color="#97AFEC"/>
</radialGradient>
<radialGradient id="paint2_radial_166_1378" cx="0" cy="0" r="1" gradientUnits="userSpaceOnUse" gradientTransform="translate(80 16) rotate(90) scale(12)">
<stop stop-color="#CDD4E4"/>
<stop offset="0.966346" stop-color="#97AFEC"/>
</radialGradient>
<radialGradient id="paint3_radial_166_1378" cx="0" cy="0" r="1" gradientUnits="userSpaceOnUse" gradientTransform="translate(84 48) rotate(90) scale(8)">
<stop stop-color="#CDD4E4"/>
<stop offset="0.966346" stop-color="#97AFEC"/>
</radialGradient>
</defs>
</svg>
